<svg width="211" height="115" viewBox="0 0 211 115" fill="none" xmlns="http://www.w3.org/2000/svg">
<path d="M165.751 22.7886C157.334 25.9808 146.825 26.6444 136.145 27.316C122.377 28.1846 108.293 29.0721 100.232 35.4944C95.9073 38.9388 93.0559 44.7368 92.7308 54.2378C92.6806 55.7165 94.3293 60.2943 94.4031 61.9433C95.408 58.5556 97.6785 54.7911 99.2879 52.0324C103.958 44.0259 108.532 38.1601 117.502 36.0225C119.94 35.4408 121.539 35.7072 124.335 35.611C126.724 35.5259 127.43 35.1381 127.515 37.539C127.6 39.9398 126.753 40.1668 124.365 40.252C122.231 40.3276 120.105 41.2215 118.138 41.6912C111.526 43.2676 107.582 48.2191 104.154 54.0943C102.48 56.9634 99.8328 61.5539 99.5187 69.0702C104.68 61.3663 113.098 50.5711 122.847 48.0079C130.246 46.0626 137.739 46.66 144.687 47.2197C155.364 48.0725 164.413 48.7961 165.6 35.9043C165.73 34.4855 165.791 30.3868 165.777 26.1589C165.776 25.0286 165.766 23.8873 165.751 22.7886Z" fill="#E7E7E7"/>
<path d="M127.524 37.7693C127.544 39.951 126.679 40.1686 124.37 40.2505C122.236 40.3278 120.11 41.2216 118.142 41.6914C111.53 43.2678 107.586 48.2192 104.158 54.0945C102.484 56.9636 99.837 61.554 99.523 69.0703C104.684 61.3664 113.102 50.5712 122.851 48.008C130.25 46.0627 137.743 46.6602 144.692 47.2198C155.37 48.0726 169.332 55.5747 164.511 23.4902C157.657 42.0461 137.342 35.6758 127.524 37.7693Z" fill="white"/>
<path d="M51.6408 106.393H46.8376C51.1716 101.849 53.8096 95.9423 54.3057 89.6709C54.8018 83.3995 53.1255 77.1485 49.5602 71.9749C45.9949 66.8013 40.7595 63.0225 34.739 61.2774C28.7186 59.5324 22.2826 59.9282 16.5194 62.3979C10.7561 64.8676 6.01917 69.2597 3.10952 74.8315C0.199862 80.4034 -0.703965 86.813 0.550842 92.9767C1.80565 99.1404 5.14208 104.68 9.99604 108.659C14.85 112.638 20.9236 114.811 27.1899 114.813H51.6345C52.192 114.823 52.746 114.723 53.2642 114.516C53.7824 114.309 54.2543 114.001 54.6524 113.609C55.0505 113.217 55.3667 112.749 55.5826 112.233C55.7984 111.717 55.9096 111.163 55.9096 110.603C55.9096 110.043 55.7984 109.489 55.5826 108.973C55.3667 108.457 55.0505 107.989 54.6524 107.597C54.2543 107.205 53.7824 106.897 53.2642 106.69C52.746 106.483 52.192 106.382 51.6345 106.393H51.6408ZM40.4925 100.861C37.4156 103.95 33.3673 105.872 29.0374 106.299C24.7074 106.727 20.3637 105.634 16.7464 103.207C13.1291 100.78 10.4619 97.1682 9.19937 92.9881C7.93683 88.8079 8.15701 84.3176 9.82242 80.2822C11.4878 76.2468 14.4954 72.916 18.3328 70.8572C22.1701 68.7985 26.5997 68.1393 30.8669 68.9919C35.134 69.8444 38.9747 72.1561 41.7346 75.5329C44.4944 78.9097 46.0027 83.1428 46.0023 87.5109C46.0055 89.9908 45.5206 92.447 44.5753 94.7381C43.63 97.0292 42.243 99.1102 40.4941 100.861H40.4925Z" fill="#08CB00"/>
<path d="M205.986 80.4173H174.518C173.961 80.4065 173.407 80.5073 172.888 80.714C172.37 80.9207 171.898 81.2291 171.5 81.6211C171.102 82.0131 170.786 82.4808 170.57 82.997C170.354 83.5131 170.243 84.0673 170.243 84.6271C170.243 85.1869 170.354 85.741 170.57 86.2572C170.786 86.7733 171.102 87.2411 171.5 87.633C171.898 88.025 172.37 88.3334 172.888 88.5401C173.407 88.7468 173.961 88.8477 174.518 88.8368H205.986C206.544 88.8477 207.098 88.7468 207.616 88.5401C208.134 88.3334 208.606 88.025 209.004 87.633C209.402 87.2411 209.718 86.7733 209.934 86.2572C210.15 85.741 210.261 85.1869 210.261 84.6271C210.261 84.0673 210.15 83.5131 209.934 82.997C209.718 82.4808 209.402 82.0131 209.004 81.6211C208.606 81.2291 208.134 80.9207 207.616 80.714C207.098 80.5073 206.544 80.4065 205.986 80.4173Z" fill="#08CB00"/>
<path d="M189.942 106.28H186.12C185.008 106.28 183.941 106.723 183.155 107.513C182.368 108.302 181.927 109.373 181.927 110.49C181.927 111.607 182.368 112.678 183.155 113.467C183.941 114.257 185.008 114.701 186.12 114.701H189.942C191.055 114.701 192.121 114.257 192.908 113.467C193.694 112.678 194.136 111.607 194.136 110.49C194.136 109.373 193.694 108.302 192.908 107.513C192.121 106.723 191.055 106.28 189.942 106.28Z" fill="#08CB00"/>
<path d="M174.214 106.28H153.857C158.16 101.716 160.763 95.8014 161.227 89.5344C161.691 83.2675 159.987 77.0317 156.404 71.8794C152.82 66.7272 147.575 62.9739 141.555 61.2529C135.535 59.532 129.108 59.9488 123.358 62.4329C117.609 64.9171 112.889 69.3166 109.995 74.8889C107.101 80.4612 106.21 86.8652 107.473 93.0202C108.737 99.1751 112.076 104.704 116.928 108.674C121.78 112.644 127.848 114.812 134.107 114.813C147.465 114.813 160.848 114.701 174.214 114.701C175.327 114.701 176.393 114.257 177.18 113.467C177.967 112.678 178.408 111.607 178.408 110.49C178.408 109.373 177.967 108.302 177.18 107.513C176.393 106.723 175.327 106.28 174.214 106.28ZM147.407 100.861C144.33 103.951 140.282 105.873 135.951 106.301C131.621 106.73 127.277 105.637 123.659 103.21C120.041 100.783 117.373 97.172 116.11 92.9916C114.846 88.8111 115.066 84.3203 116.731 80.2843C118.397 76.2483 121.404 72.9168 125.242 70.8576C129.079 68.7983 133.509 68.1386 137.777 68.991C142.045 69.8433 145.886 72.1549 148.646 75.532C151.407 78.909 152.915 83.1424 152.915 87.511C152.918 89.9908 152.433 92.4468 151.487 94.7379C150.542 97.029 149.155 99.11 147.407 100.861Z" fill="#08CB00"/>
<path d="M143.51 55.48C158.27 56.6592 170.778 57.6586 172.689 36.9179C172.846 35.3052 172.909 31.0426 172.893 26.7469C172.884 23.0881 172.835 19.4955 172.697 17.2586C172.474 13.6329 169.297 11.1942 166.135 13.3176C159.25 17.9695 147.44 18.7136 135.386 19.4734C110.518 21.0404 86.6618 23.044 85.6114 53.6057C85.2659 63.6694 87.4453 77.0216 93.098 94.734H69.3239C70.865 84.4831 68.6981 74.017 63.2159 65.2316C58.1913 57.1479 50.6419 50.858 41.8426 47.6973L60.3707 16.3947L67.9924 22.7476C68.8463 23.4391 69.937 23.7655 71.0287 23.6562C72.1203 23.547 73.1253 23.0109 73.8266 22.1638C74.5278 21.3168 74.8689 20.2267 74.7762 19.1292C74.6834 18.0317 74.1643 17.0149 73.331 16.2985L62.1607 6.98989C60.9595 5.83912 59.3548 5.56009 57.8034 6.08818L49.5066 0.681127C46.8043 -1.08287 43.2526 0.783598 43.0579 3.93798L42.4062 14.0805C42.3654 14.774 42.496 15.4669 42.7864 16.0974C43.0768 16.728 43.5179 17.2766 44.0705 17.6946C44.6232 18.1127 45.2702 18.387 45.954 18.4933C46.6378 18.5995 47.3371 18.5344 47.9898 18.3037L49.8835 17.659L31.9002 48.0378C29.1053 52.5069 33.7844 54.0613 36.9248 54.9378C44.8118 57.1353 51.6577 62.525 56.1014 69.6755C60.5537 76.8146 62.2977 85.324 61.0145 93.6479C60.7789 95.1786 59.9577 97.6362 59.9577 98.9477C59.9577 100.064 60.3996 101.135 61.1861 101.925C61.9726 102.715 63.0394 103.158 64.1517 103.158H98.9076C101.921 103.158 103.573 100.453 102.91 97.6567C101.104 88.1888 102.456 78.6263 106.58 70.9335C114.933 55.3523 127.925 54.2362 143.51 55.48ZM101.324 63.4424C103.585 53.3929 109.192 45.3233 119.705 42.8152C121.658 42.356 123.651 42.0919 125.656 42.027C126.764 41.9879 127.811 41.5086 128.567 40.6944C129.322 39.8802 129.725 38.7979 129.686 37.6856C129.647 36.5733 129.17 35.522 128.359 34.7631C127.548 34.0043 126.47 33.5999 125.362 33.639C122.806 33.7188 120.263 34.0515 117.772 34.6321C105.367 37.591 97.5322 46.5245 94.004 58.4153C93.9317 56.8231 93.9213 55.3129 93.9726 53.8847C94.8252 28.9334 115.991 29.1352 135.909 27.8741C146.227 27.2246 156.379 26.5846 164.51 23.4996C164.526 24.562 164.535 25.6655 164.538 26.7564C164.552 30.8409 164.493 34.7961 164.367 36.1707C163.219 48.6243 154.484 47.9259 144.165 47.1014C126.642 45.6921 112.053 47.4167 101.324 63.4424Z" fill="#08CB00"/>
</svg>
