<svg xmlns="http://www.w3.org/2000/svg" xmlns:xlink="http://www.w3.org/1999/xlink" width="500" zoomAndPan="magnify" viewBox="0 0 375 374.999991" height="500" preserveAspectRatio="xMidYMid meet" version="1.0"><defs><g/><clipPath id="70d1766220"><path d="M 1.363281 0.941406 L 132.425781 0.941406 L 132.425781 132.003906 L 1.363281 132.003906 Z M 1.363281 0.941406 " clip-rule="nonzero"/></clipPath><clipPath id="cf2cfef62c"><rect x="0" width="287" y="0" height="133"/></clipPath></defs><g transform="matrix(1, 0, 0, 1, 43, 121)"><g clip-path="url(#cf2cfef62c)"><g clip-path="url(#70d1766220)"><path fill="#0077ff" d="M 89.289062 66.59375 C 89.289062 68.105469 88.6875 69.554688 87.621094 70.621094 L 61.421875 96.820312 C 60.308594 97.933594 58.851562 98.488281 57.390625 98.488281 C 55.933594 98.488281 54.476562 97.933594 53.367188 96.820312 C 51.140625 94.597656 51.140625 90.992188 53.367188 88.765625 L 75.621094 66.511719 L 53.367188 44.257812 C 51.140625 42.03125 51.140625 38.425781 53.367188 36.203125 C 55.589844 33.976562 59.195312 33.976562 61.421875 36.203125 L 87.621094 62.402344 C 88.6875 63.46875 89.289062 64.917969 89.289062 66.429688 Z M 66.933594 0.953125 C 30.726562 0.953125 1.375 30.304688 1.375 66.511719 C 1.375 102.71875 30.726562 132.070312 66.933594 132.070312 C 103.140625 132.070312 132.492188 102.71875 132.492188 66.511719 C 132.492188 30.304688 103.140625 0.953125 66.933594 0.953125 " fill-opacity="1" fill-rule="nonzero"/></g><g fill="#0077ff" fill-opacity="1"><g transform="translate(148.233003, 84.577596)"><g><path d="M -1.453125 0 L 0 -7.609375 L 21.15625 -29.28125 L 21.15625 -29.390625 L 5.28125 -29.390625 L 6.71875 -36.984375 L 33.984375 -36.984375 L 32.546875 -29.390625 L 11.375 -7.703125 L 11.375 -7.609375 L 28.8125 -7.609375 L 27.375 0 Z M -1.453125 0 "/></g></g></g><g fill="#0077ff" fill-opacity="1"><g transform="translate(179.781689, 84.577596)"><g><path d="M 9.828125 0 L 12.46875 -13.65625 L 4.546875 -36.984375 L 14.375 -36.984375 L 18.625 -21.78125 L 18.734375 -21.78125 L 28.921875 -36.984375 L 38.75 -36.984375 L 21.78125 -13.65625 L 19.140625 0 Z M 9.828125 0 "/></g></g></g><g fill="#0077ff" fill-opacity="1"><g transform="translate(214.588771, 84.577596)"><g><path d="M -0.109375 0 L 7.03125 -36.984375 L 24.984375 -36.984375 C 28.847656 -36.984375 31.710938 -35.992188 33.578125 -34.015625 C 35.441406 -32.035156 35.992188 -29.09375 35.234375 -25.1875 C 34.472656 -21.332031 32.78125 -18.40625 30.15625 -16.40625 C 27.539062 -14.40625 24.300781 -13.40625 20.4375 -13.40625 L 11.796875 -13.40625 L 9.203125 0 Z M 13.25 -21 L 19.921875 -21 C 21.535156 -21 22.867188 -21.304688 23.921875 -21.921875 C 24.972656 -22.546875 25.640625 -23.632812 25.921875 -25.1875 C 26.234375 -26.738281 25.988281 -27.828125 25.1875 -28.453125 C 24.394531 -29.078125 23.191406 -29.390625 21.578125 -29.390625 L 14.90625 -29.390625 Z M 13.25 -21 "/></g></g></g><g fill="#0077ff" fill-opacity="1"><g transform="translate(249.033823, 84.577596)"><g><path d="M -0.109375 0 L 7.03125 -36.984375 L 24.984375 -36.984375 C 28.847656 -36.984375 31.710938 -35.992188 33.578125 -34.015625 C 35.441406 -32.035156 35.992188 -29.09375 35.234375 -25.1875 C 34.472656 -21.332031 32.78125 -18.40625 30.15625 -16.40625 C 27.539062 -14.40625 24.300781 -13.40625 20.4375 -13.40625 L 11.796875 -13.40625 L 9.203125 0 Z M 13.25 -21 L 19.921875 -21 C 21.535156 -21 22.867188 -21.304688 23.921875 -21.921875 C 24.972656 -22.546875 25.640625 -23.632812 25.921875 -25.1875 C 26.234375 -26.738281 25.988281 -27.828125 25.1875 -28.453125 C 24.394531 -29.078125 23.191406 -29.390625 21.578125 -29.390625 L 14.90625 -29.390625 Z M 13.25 -21 "/></g></g></g></g></g></svg>